<svg xmlns="http://www.w3.org/2000/svg" viewBox="0 0 40 36.4"><title>clipart</title><g id="Layer_2" data-name="Layer 2"><g id="Layer_1-2" data-name="Layer 1"><path d="M21.11,18.4a6.05,6.05,0,1,0-6-6.05A6.06,6.06,0,0,0,21.11,18.4Zm0-8.1a2.05,2.05,0,1,1-2,2A2.05,2.05,0,0,1,21.11,10.3Z"/><path d="M40,5a5,5,0,0,0-5-5H5A5,5,0,0,0,0,5V31.7a4.71,4.71,0,0,0,4.7,4.7H35.3a4.71,4.71,0,0,0,4.41-3.11,2,2,0,0,0,.11-.63A4.94,4.94,0,0,0,40,31.4ZM5,4H35a1,1,0,0,1,1,1V27.4l-7.07-8.25a2.07,2.07,0,0,0-3,0L21.56,24.2l-7-8.2a2.07,2.07,0,0,0-3,0L4,24.74V5A1,1,0,0,1,5,4ZM4,31.4v-.52l9-10.51,7,8.2h0l3.28,3.82H5A1,1,0,0,1,4,31.4Zm24.59,1-4.39-5.13,3.22-3.75L35,32.4H28.59Z"/></g></g></svg>