<svg xmlns="http://www.w3.org/2000/svg" viewBox="0 0 34.34 49"><title>distress</title><g id="Layer_2" data-name="Layer 2"><g id="Layer_1-2" data-name="Layer 1"><path d="M10.26,49a2.59,2.59,0,0,1-2.42-3.5l4.93-14.6H2.58A2.58,2.58,0,0,1,.65,26.6L21,.93l.16-.17a2.58,2.58,0,0,1,4.26,2.67L20.72,17.07h11a2.58,2.58,0,0,1,1.91,4.31L12.22,48.08l-.17.18A2.57,2.57,0,0,1,10.26,49Zm1.37-2.23,0,.08ZM5.52,26.9h9.23a2.58,2.58,0,0,1,2.41,3.5l-3,8.88L28.79,21.07H18.73a2.58,2.58,0,0,1-2.44-3.43L18.94,10ZM13.4,29l0,.08Zm6.67-10.1h0Z"/></g></g></svg>