<svg xmlns="http://www.w3.org/2000/svg" viewBox="0 0 54 40.83"><title>image-upload</title><g id="Layer_2" data-name="Layer 2"><g id="Layer_1-2" data-name="Layer 1"><path d="M47.07,16.29A11.56,11.56,0,0,0,36.49,8.4,10.28,10.28,0,0,0,34,8.72C31.3,3.36,26.29,0,20.73,0,13.25,0,6.9,6.21,5.77,14.37A10.15,10.15,0,0,0,0,23.83c0,4.76,2.91,8.83,7.09,9.91l.24,0L8.9,34l.26,0h15v4.83a2,2,0,0,0,4,0V34H46c4.44,0,8-4,8-8.9C54,20.61,51,16.89,47.07,16.29ZM46,30H28.17V19l4.31,4.31a2,2,0,0,0,2.83-2.83L27.58,12.8a2,2,0,0,0-2.83,0L17,20.52a2,2,0,1,0,2.83,2.83L24.17,19V30H9.29L8,29.83c-2.31-.66-4-3.16-4-6s1.73-5.45,4.11-6A2,2,0,0,0,9.62,16c.45-6.72,5.33-12,11.1-12C25.2,4,29.22,7.11,31,11.92A2,2,0,0,0,33.72,13a6.41,6.41,0,0,1,2.78-.64c3.28,0,6.22,2.59,7.15,6.31a2,2,0,0,0,2.08,1.51H46c2.23,0,4,2.2,4,4.9S48.19,30,46,30Z"/></g></g></svg>