<svg xmlns="http://www.w3.org/2000/svg" viewBox="0 0 44 41.71"><title>layers</title><g id="Layer_2" data-name="Layer 2"><g id="Layer_1-2" data-name="Layer 1"><path d="M38.57,17.14H35.43V14A5.44,5.44,0,0,0,30,8.57H26.86V5.43A5.44,5.44,0,0,0,21.43,0h-16A5.44,5.44,0,0,0,0,5.43V19.14a5.44,5.44,0,0,0,5.43,5.43H8.57v3.14A5.43,5.43,0,0,0,14,33.14h3.14v3.14a5.43,5.43,0,0,0,5.43,5.43h16A5.43,5.43,0,0,0,44,36.29V22.57A5.43,5.43,0,0,0,38.57,17.14ZM4,19.14V5.43A1.43,1.43,0,0,1,5.43,4h16a1.43,1.43,0,0,1,1.43,1.43V19.14a1.43,1.43,0,0,1-1.43,1.43h-16A1.43,1.43,0,0,1,4,19.14Zm8.57,8.57V24.57h8.86a5.44,5.44,0,0,0,5.43-5.43V12.57H30A1.43,1.43,0,0,1,31.43,14V27.71A1.43,1.43,0,0,1,30,29.14H14A1.43,1.43,0,0,1,12.57,27.71ZM40,36.29a1.43,1.43,0,0,1-1.43,1.43h-16a1.43,1.43,0,0,1-1.43-1.43V33.14H30a5.44,5.44,0,0,0,5.43-5.43V21.14h3.14A1.43,1.43,0,0,1,40,22.57Z"/></g></g></svg>