<svg xmlns="http://www.w3.org/2000/svg" viewBox="0 0 41 38"><title>shapes</title><g id="Layer_2" data-name="Layer 2"><g id="Layer_1-2" data-name="Layer 1"><path d="M36,24.22V13.78a7,7,0,1,0-8.64-9.05H13.68a7,7,0,1,0-8.71,9V24.24a7,7,0,1,0,8.64,9.24H27.4A7,7,0,1,0,36,24.22ZM34,4a3,3,0,1,1-3,3A3,3,0,0,1,34,4ZM4,7A3,3,0,0,1,7,4H7a3,3,0,0,1,0,6.07H7A3,3,0,0,1,4,7ZM7,34H7a3,3,0,0,1,0-6.07H7A3,3,0,0,1,7,34Zm20.05-4.52H13.91A7.05,7.05,0,0,0,9,24.2V13.8a7.05,7.05,0,0,0,4.9-5.07H27.14A7.05,7.05,0,0,0,32,13.78V24.22A7.06,7.06,0,0,0,27.09,29.48ZM34,34a3,3,0,1,1,3-3A3,3,0,0,1,34,34Z"/></g></g></svg>