<?xml version="1.0" encoding="utf-8"?>
<!-- Generator: Adobe Illustrator 24.0.1, SVG Export Plug-In . SVG Version: 6.00 Build 0)  -->
<svg version="1.1" id="Layer_1" xmlns="http://www.w3.org/2000/svg" xmlns:xlink="http://www.w3.org/1999/xlink" x="0px" y="0px"
	 viewBox="0 0 90 72" style="enable-background:new 0 0 90 72;" xml:space="preserve">
<style type="text/css">
	.st0{fill:#2DA8E0;}
	.st1{fill:#FFFFFF;}
	.st2{fill:#00A551;}
</style>
<g>
	<path class="st0" d="M57.27,9.48L46.43,7.5c-0.03,3.64-3.34,6.59-7.43,6.59c-4.08,0-7.4-2.94-7.43-6.58L20.72,9.48L10.56,19.61
		l8.34,8.31l4.65-4.65l0.01,33.06h30.9l-0.11-33.18l4.76,4.76l8.34-8.31L57.27,9.48z"/>
	<path class="st1" d="M46.43,7.5l10.85,1.98l10.17,10.14l-8.34,8.31l-4.76-4.76l0.11,33.18h-30.9l-0.01-33.06l-4.65,4.65l-8.34-8.31
		L20.72,9.48l10.85-1.97c0.03,3.64,3.34,6.58,7.43,6.58C43.08,14.09,46.4,11.14,46.43,7.5 M46.43,6c-0.35,0-0.69,0.12-0.96,0.34
		c-0.34,0.28-0.54,0.7-0.54,1.14c-0.02,2.81-2.68,5.1-5.93,5.1c-3.24,0-5.9-2.29-5.93-5.1c0-0.44-0.2-0.86-0.54-1.14
		c-0.27-0.22-0.61-0.34-0.96-0.34c-0.09,0-0.18,0.01-0.27,0.02L20.45,8c-0.3,0.05-0.58,0.2-0.79,0.41L9.5,18.55
		c-0.28,0.28-0.44,0.66-0.44,1.06c0,0.4,0.16,0.78,0.44,1.06l8.34,8.31c0.29,0.29,0.68,0.44,1.06,0.44c0.38,0,0.77-0.15,1.06-0.44
		l2.09-2.09l0.01,29.44c0,0.83,0.67,1.5,1.5,1.5h30.9c0.4,0,0.78-0.16,1.06-0.44s0.44-0.67,0.44-1.06L55.85,26.8l2.19,2.19
		c0.29,0.29,0.68,0.44,1.06,0.44c0.38,0,0.77-0.15,1.06-0.44l8.34-8.31c0.28-0.28,0.44-0.66,0.44-1.06c0-0.4-0.16-0.78-0.44-1.06
		L58.33,8.41C58.12,8.2,57.84,8.06,57.54,8L46.69,6.02C46.6,6.01,46.51,6,46.43,6L46.43,6z"/>
</g>
<g>
	<path class="st0" d="M63.27,11.48L52.43,9.5c-0.03,3.64-3.34,6.59-7.43,6.59c-4.08,0-7.4-2.94-7.43-6.58l-10.85,1.97L16.56,21.61
		l8.34,8.31l4.65-4.65l0.01,33.06h30.9l-0.11-33.18l4.76,4.76l8.34-8.31L63.27,11.48z"/>
	<path class="st1" d="M52.43,9.5l10.85,1.98l10.17,10.14l-8.34,8.31l-4.76-4.76l0.11,33.18h-30.9l-0.01-33.06l-4.65,4.65l-8.34-8.31
		l10.16-10.14l10.85-1.97c0.03,3.64,3.34,6.58,7.43,6.58C49.08,16.09,52.4,13.14,52.43,9.5 M52.43,8c-0.35,0-0.69,0.12-0.96,0.34
		c-0.34,0.28-0.54,0.7-0.54,1.14c-0.02,2.81-2.68,5.1-5.93,5.1c-3.24,0-5.9-2.29-5.93-5.1c0-0.44-0.2-0.86-0.54-1.14
		c-0.27-0.22-0.61-0.34-0.96-0.34c-0.09,0-0.18,0.01-0.27,0.02L26.45,10c-0.3,0.05-0.58,0.2-0.79,0.41L15.5,20.55
		c-0.28,0.28-0.44,0.66-0.44,1.06c0,0.4,0.16,0.78,0.44,1.06l8.34,8.31c0.29,0.29,0.68,0.44,1.06,0.44c0.38,0,0.77-0.15,1.06-0.44
		l2.09-2.09l0.01,29.44c0,0.83,0.67,1.5,1.5,1.5h30.9c0.4,0,0.78-0.16,1.06-0.44s0.44-0.67,0.44-1.06L61.85,28.8l2.19,2.19
		c0.29,0.29,0.68,0.44,1.06,0.44c0.38,0,0.77-0.15,1.06-0.44l8.34-8.31c0.28-0.28,0.44-0.66,0.44-1.06c0-0.4-0.16-0.78-0.44-1.06
		L64.33,10.41c-0.22-0.21-0.49-0.36-0.79-0.41L52.69,8.02C52.61,8.01,52.51,8,52.43,8L52.43,8z"/>
</g>
<g>
	<path class="st0" d="M69.27,13.48L58.43,11.5c-0.03,3.64-3.34,6.59-7.43,6.59c-4.08,0-7.4-2.94-7.43-6.58l-10.85,1.97L22.56,23.61
		l8.34,8.31l4.65-4.65l0.01,33.06h30.9l-0.11-33.18l4.76,4.76l8.34-8.31L69.27,13.48z"/>
	<path class="st1" d="M58.43,11.5l10.85,1.98l10.17,10.14l-8.34,8.31l-4.76-4.76l0.11,33.18h-30.9l-0.01-33.06l-4.65,4.65
		l-8.34-8.31l10.16-10.14l10.85-1.97c0.03,3.64,3.34,6.58,7.43,6.58C55.08,18.09,58.4,15.14,58.43,11.5 M58.43,10
		c-0.35,0-0.69,0.12-0.96,0.34c-0.34,0.28-0.54,0.7-0.54,1.14c-0.02,2.81-2.68,5.1-5.93,5.1c-3.24,0-5.9-2.29-5.93-5.1
		c0-0.44-0.2-0.86-0.54-1.14c-0.27-0.22-0.61-0.34-0.96-0.34c-0.09,0-0.18,0.01-0.27,0.02L32.45,12c-0.3,0.05-0.58,0.2-0.79,0.41
		L21.5,22.55c-0.28,0.28-0.44,0.66-0.44,1.06c0,0.4,0.16,0.78,0.44,1.06l8.34,8.31c0.29,0.29,0.68,0.44,1.06,0.44
		c0.38,0,0.77-0.15,1.06-0.44l2.09-2.09l0.01,29.44c0,0.83,0.67,1.5,1.5,1.5h30.9c0.4,0,0.78-0.16,1.06-0.44s0.44-0.67,0.44-1.06
		L67.85,30.8l2.19,2.19c0.29,0.29,0.68,0.44,1.06,0.44c0.38,0,0.77-0.15,1.06-0.44l8.34-8.31c0.28-0.28,0.44-0.66,0.44-1.06
		c0-0.4-0.16-0.78-0.44-1.06L70.33,12.41c-0.22-0.21-0.49-0.36-0.79-0.41l-10.85-1.98C58.61,10.01,58.52,10,58.43,10L58.43,10z"/>
</g>
<g>
	<g>
		<g>
			<g>
				<g>
					<g>
						<circle class="st2" cx="61.85" cy="55.34" r="12.2"/>
						<path class="st1" d="M61.85,43.14c6.74,0,12.2,5.46,12.2,12.2c0,6.74-5.46,12.2-12.2,12.2s-12.2-5.46-12.2-12.2
							C49.65,48.6,55.11,43.14,61.85,43.14 M61.85,41.14c-7.83,0-14.2,6.37-14.2,14.2c0,7.83,6.37,14.2,14.2,14.2
							s14.2-6.37,14.2-14.2C76.05,47.51,69.68,41.14,61.85,41.14L61.85,41.14z"/>
					</g>
				</g>
			</g>
		</g>
	</g>
	<path class="st1" d="M69.25,57.46H54.86c-1.17,0-2.12-0.95-2.12-2.12s0.95-2.12,2.12-2.12h14.39c1.17,0,2.12,0.95,2.12,2.12
		S70.42,57.46,69.25,57.46z"/>
	<path class="st1" d="M62.06,64.65c-1.17,0-2.12-0.95-2.12-2.12V48.15c0-1.17,0.95-2.12,2.12-2.12s2.12,0.95,2.12,2.12v14.39
		C64.18,63.7,63.23,64.65,62.06,64.65z"/>
</g>
</svg>
