<svg xmlns="http://www.w3.org/2000/svg" viewBox="0 0 77.03 65.55"><defs><style>.cls-1,.cls-2{fill:none;stroke:#0071bc;stroke-linejoin:round;stroke-width:5px;}.cls-1{stroke-linecap:round;}</style></defs><title>Asset 1</title><g id="Layer_2" data-name="Layer 2"><g id="Layer_1-2" data-name="Layer 1"><path class="cls-1" d="M73,13.62A64.9,64.9,0,0,0,52.37,3.19a24.61,24.61,0,0,0-2.79-.69,10.24,10.24,0,0,1-20.45.13q-1,.18-2.11.4l-1.6.47a63.9,63.9,0,0,0-20,10.34c-1.18.91-1.32,1.55-.69,2.89q2.55,5.43,5.12,10.85a2,2,0,0,0,2.55,1.26l8.92-1.71v1.18q0,16.12,0,32.24c0,1.91.58,2.5,2.45,2.5H54.83c2,0,2.56-.56,2.56-2.58q0-16.12,0-32.24V27.12l8.91,1.7a2,2,0,0,0,2.6-1.32q2.49-5.26,5-10.52C74.66,15.29,74.54,14.78,73,13.62Z"/><path class="cls-2" d="M6.39,44.22q0,.15,0,.3c0,6.21,15.26,11.24,34.08,11.24s34.08-5,34.08-11.24c0-4.18-6.91-7.82-17.17-9.76"/><polyline class="cls-1" points="12.27 42.14 3.72 43.24 2.5 51.77"/></g></g></svg>