<svg xmlns="http://www.w3.org/2000/svg" viewBox="0 0 43 25.6"><title>text</title><g id="Layer_2" data-name="Layer 2"><g id="Layer_1-2" data-name="Layer 1"><path d="M40.94,21.8c-.19,0-.18-.08-.13-.31.35-1.65,1.06-5.27,1.53-7.8a4.79,4.79,0,0,0-4.81-5.77c-3.65,0-6.82,1.54-10,3.77A19,19,0,0,0,29,14.45c1.7-1.08,3.94-2.15,5.24-2.15,1.73,0,2.21,1.11,1.74,3H34.18c-6.11,0-9.33,3.65-9.73,5.8a3,3,0,0,0,0,.77l-1-.08C22.42,15.65,21.1,6.46,20.07,0c-2.81,0-4.58,0-5.28.08C11.31,6.34,6.24,15.45,2.73,21.68a.36.36,0,0,1-.27.19L.68,22C.45,23,.2,24.14,0,25.22H9.19c.24-1.08.45-2.19.64-3.23l-2.09-.12c.3-.81.81-1.88,1.16-2.73L16,19.07c.15,0,.22,0,.23.19.12.58.24,1.81.33,2.38a.16.16,0,0,1-.15.19L14.52,22c-.24,1.08-.45,2.19-.65,3.27h10.8c.12-.54.23-1.09.34-1.63a4.68,4.68,0,0,0,3.6,2,15.08,15.08,0,0,0,5.89-1.69h.19a11.74,11.74,0,0,0,1.15,1.69,26.57,26.57,0,0,0,6.56-.77c.22-1,.4-2.15.59-3.15ZM10.58,15.88c-.12,0-.1-.08,0-.23C11.84,13,13.33,10,14.74,7.15h.19c.36,3,.7,6.19,1,8.73Zm24.47,5a.39.39,0,0,1-.12.23,6.3,6.3,0,0,1-2.73.85c-.77,0-1.66-.58-1.49-1.5.21-1.15,1.54-2.27,4-2.27a5.24,5.24,0,0,1,.8,0Z"/></g></g></svg>